<?xml version="1.0" standalone="no"?>
<!DOCTYPE svg PUBLIC "-//W3C//DTD SVG 20010904//EN"
 "http://www.w3.org/TR/2001/REC-SVG-20010904/DTD/svg10.dtd">
<svg version="1.0" xmlns="http://www.w3.org/2000/svg"
 width="512.000000pt" height="512.000000pt" viewBox="0 0 512.000000 512.000000"
 preserveAspectRatio="xMidYMid meet">

<g transform="translate(0.000000,512.000000) scale(0.100000,-0.100000)"
fill="#000000" stroke="none">
<path d="M3985 4970 c-38 -8 -66 -23 -87 -47 -9 -10 -61 -128 -116 -263 l-100
-245 -80 -45 c-238 -135 -369 -300 -449 -565 -11 -35 -17 -125 -22 -300 -7
-223 -10 -256 -30 -306 -37 -95 -126 -180 -223 -210 -18 -6 -118 -15 -223 -19
-123 -6 -222 -16 -280 -29 -513 -113 -924 -486 -1084 -984 -63 -197 -66 -233
-66 -752 0 -356 3 -481 13 -515 20 -71 54 -152 79 -192 13 -21 23 -40 23 -43
0 -3 -183 -5 -407 -5 l-408 0 -51 24 c-63 29 -114 79 -145 142 -19 39 -24 65
-24 124 0 87 23 144 81 204 60 61 105 79 227 86 85 6 114 11 134 27 93 69 95
190 4 250 -30 20 -46 23 -139 23 -62 0 -129 -6 -166 -16 -204 -53 -373 -223
-426 -429 -36 -142 -18 -296 52 -428 46 -86 155 -194 244 -240 149 -77 22 -71
1614 -75 784 -1 1435 0 1448 3 22 5 22 8 22 161 0 165 -6 194 -54 257 -14 19
-50 47 -78 63 -51 27 -59 28 -228 34 -199 6 -214 11 -250 84 -19 40 -20 60
-20 399 0 216 -4 377 -11 409 -6 29 -31 95 -56 147 -36 75 -59 108 -116 165
-113 112 -234 167 -409 185 -52 5 -98 15 -113 25 -65 43 -86 143 -42 206 39
58 79 72 182 66 392 -24 727 -298 837 -685 20 -69 22 -106 26 -389 l4 -312 61
0 c156 -1 294 -57 402 -165 105 -104 165 -235 165 -357 0 -62 28 -118 91 -179
87 -85 193 -118 374 -119 163 0 251 28 322 102 81 84 103 232 51 333 -45 85
-147 164 -215 165 -56 0 -53 -17 -53 357 l0 345 81 120 c129 193 221 402 275
623 42 173 54 304 54 593 l0 267 163 117 c89 65 170 130 179 145 23 41 101
438 93 479 -10 54 -47 88 -199 180 -126 77 -146 93 -167 133 -13 25 -64 87
-114 137 -78 78 -104 98 -187 138 -63 31 -125 53 -180 63 -45 9 -89 17 -95 19
-10 3 -13 52 -13 204 0 215 -3 232 -53 278 -29 28 -80 41 -122 32z m538 -994
c43 -18 85 -68 93 -112 9 -48 -19 -118 -58 -146 -47 -33 -124 -36 -168 -6 -97
65 -90 206 12 257 50 25 76 26 121 7z"/>
</g>
</svg>
